<svg width="548" height="60" viewBox="0 0 548 60" fill="none" xmlns="http://www.w3.org/2000/svg">
<path d="M89.8107 31.8151L93.7249 27.7157H82.4064V31.8151H89.8107ZM96.3679 15H75.2261V45.0008H96.3679V40.536H79.8381V19.465H96.3679V15Z" fill="#FAFAFA"/>
<path d="M326.139 31.8151L330.052 27.7157H318.734V31.8151H326.139ZM332.695 15H311.555V45.0008H332.695V40.536H316.166V19.465H332.695V15Z" fill="#FAFAFA"/>
<path d="M110.506 13.9238H115.477L115.891 14.1407L123.555 24.5534L131.219 14.1407L131.633 13.9238H136.604L136.811 14.1407L126.248 28.2413L138.053 44.0772L137.848 44.2942H132.876L132.461 44.0772L123.555 31.9291L114.648 44.0772L114.234 44.2942H109.263L109.055 44.0772L120.862 28.2413L110.298 14.1407L110.506 13.9238Z" fill="#FAFAFA"/>
<path d="M151.087 13.9238H173.664L173.872 14.1407L157.508 39.9555H173.872L174.078 40.2159V44.0772L173.872 44.2942H149.844L149.636 44.0772L166 18.2625H151.087L150.879 18.0455V14.1407L151.087 13.9238Z" fill="#FAFAFA"/>
<path d="M204.13 13.2734C212.582 13.2734 219.459 20.3887 219.459 29.1093C219.459 37.83 212.582 44.9454 204.13 44.9454C195.679 44.9454 188.802 37.83 188.802 29.1093C188.802 20.3887 195.679 13.2734 204.13 13.2734ZM204.13 17.8289C198.289 17.8289 193.566 22.8617 193.566 29.1093C193.566 35.357 198.289 40.3899 204.13 40.3899C209.972 40.3899 214.694 35.357 214.694 29.1093C214.694 22.8617 209.972 17.8289 204.13 17.8289Z" fill="#FAFAFA"/>
<path d="M454.781 13.2734C463.232 13.2734 470.108 20.3887 470.108 29.1093C470.108 37.83 463.232 44.9454 454.781 44.9454C446.329 44.9454 439.453 37.83 439.453 29.1093C439.453 20.3887 446.329 13.2734 454.781 13.2734ZM454.781 17.8289C448.94 17.8289 444.217 22.8617 444.217 29.1093C444.217 35.357 448.94 40.3899 454.781 40.3899C460.621 40.3899 465.344 35.357 465.344 29.1093C465.344 22.8617 460.621 17.8289 454.781 17.8289Z" fill="#FAFAFA"/>
<path d="M524.594 13.9238H528.322L528.53 14.1407V24.5534L540.336 14.1407L540.751 13.9238H546.137L546.343 14.1407L531.637 26.9397L548 44.0772L547.793 44.2942H542.408L541.993 44.0772L528.53 29.7597V44.0772L528.322 44.2942H524.594L524.387 44.0772V14.1407L524.594 13.9238Z" fill="#FAFAFA"/>
<path d="M348.805 13.9238H371.59L371.798 14.1407V18.0455L371.59 18.2625H362.27V44.0772L362.063 44.2942H358.334L358.127 44.0772V18.2625H348.805L348.599 18.0455V14.1407L348.805 13.9238Z" fill="#FAFAFA"/>
<path d="M386.171 13.9238H390.314L390.521 14.1407L397.149 37.1355L403.57 14.5746L403.778 14.3577H407.921L408.128 14.5746L414.548 37.1355L421.176 14.1407L421.384 13.9238H425.527L425.733 14.1407L416.827 44.0772L416.62 44.2942H412.684L412.477 44.0772L405.848 21.7333L399.221 44.0772L399.014 44.2942H395.078L394.871 44.0772L385.964 14.1407L386.171 13.9238Z" fill="#FAFAFA"/>
<path d="M286.552 39.3725L268.08 15H263.805V45.0008H268.08V20.6546L286.552 45.0008H290.802V15H286.552V39.3725Z" fill="#FAFAFA"/>
<path d="M505.618 31.2957C505.977 30.9994 506.286 30.6763 506.544 30.3799C507.958 28.7099 508.729 26.4744 508.729 24.131C508.729 19.5789 505.721 15 499.934 15H483.423V45.8945H487.82V18.8248H499.934C503.483 18.8248 505.051 21.4913 505.051 24.104C505.051 25.5047 504.589 26.8515 503.791 27.7941C502.944 28.7907 501.76 29.3564 500.268 29.4103H495.69H489.081V33.2351H497.876L505.103 45.8407H509.682L502.3 32.9388C503.74 32.5886 504.82 31.9422 505.618 31.2418V31.2957Z" fill="#FAFAFA"/>
<path opacity="0.1" fill-rule="evenodd" clip-rule="evenodd" d="M23.0308 45.4389C20.6081 45.4389 18.264 45.0942 16.0382 44.446C16.3005 47.3186 16.8254 50.1681 17.6125 52.9579C25.7465 50.9036 33.1502 46.4316 38.9096 40.0523L38.787 39.9189C34.3964 43.3844 28.9431 45.4389 23.0265 45.4389H23.0308Z" fill="black"/>
<path opacity="0.3" fill-rule="evenodd" clip-rule="evenodd" d="M20.964 5.54457C20.9903 5.49781 21.0208 5.45106 21.0469 5.4043L20.964 5.54457Z" fill="#A4A4A4"/>
<path fill-rule="evenodd" clip-rule="evenodd" d="M37.0803 7.50074L24.7219 0C21.1141 4.57767 18.4028 9.79423 16.6755 15.337C26.1825 17.4237 34.5832 22.6769 40.828 30.0078C44.5321 34.3556 47.4752 39.4297 49.4431 45.0001V15.0016H49.4387L37.0847 7.50074H37.0803Z" fill="url(#paint0_linear_1328_7942)"/>
<path fill-rule="evenodd" clip-rule="evenodd" d="M16.6617 44.6535C11.2303 45.8531 5.57585 45.9956 0.000152588 44.9984L12.3629 52.499L24.7257 59.9998L37.084 52.499L49.4468 44.9984C47.4789 39.4232 44.5358 34.3492 40.8318 30.0059C34.3596 37.6171 25.8276 42.6358 16.6704 44.6535H16.6617Z" fill="url(#paint1_linear_1328_7942)"/>
<path fill-rule="evenodd" clip-rule="evenodd" d="M0 15.0029L0 45.0059C5.5757 46.0032 11.2301 45.8562 16.6615 44.6612C13.6266 34.9635 13.7578 24.6913 16.6703 15.343C18.402 9.80006 21.109 4.58354 24.7167 0.00585938L12.354 7.50664L0 15.0029Z" fill="url(#paint2_linear_1328_7942)"/>
<path opacity="0.3" fill-rule="evenodd" clip-rule="evenodd" d="M6.81865 26.124C5.20061 32.462 4.84201 39.14 5.78658 45.6297C9.45129 45.7722 13.1028 45.4413 16.6624 44.6554C13.6276 34.9577 13.7587 24.6855 16.6713 15.337C18.4031 9.79423 21.11 4.57767 24.7178 0C15.6218 6.17251 9.50376 15.599 6.81865 26.124Z" fill="url(#paint3_linear_1328_7942)"/>
<defs>
<linearGradient id="paint0_linear_1328_7942" x1="54.7652" y1="40.381" x2="17.8501" y2="1.56536" gradientUnits="userSpaceOnUse">
<stop stop-color="white"/>
<stop offset="1" stop-color="white"/>
</linearGradient>
<linearGradient id="paint1_linear_1328_7942" x1="52.8621" y1="37.9434" x2="-1.54995" y2="55.2554" gradientUnits="userSpaceOnUse">
<stop stop-color="white"/>
<stop offset="1" stop-color="white"/>
</linearGradient>
<linearGradient id="paint2_linear_1328_7942" x1="1.11514" y1="50.8705" x2="20.5939" y2="-0.557159" gradientUnits="userSpaceOnUse">
<stop stop-color="white"/>
<stop offset="1" stop-color="white"/>
</linearGradient>
<linearGradient id="paint3_linear_1328_7942" x1="14.9944" y1="0" x2="14.9944" y2="45.6619" gradientUnits="userSpaceOnUse">
<stop stop-color="white"/>
<stop offset="1" stop-color="white" stop-opacity="0.49"/>
</linearGradient>
</defs>
</svg>
